:SAMPLES-PER-SECOND 30
:FULLY-SPECIFIED
:DEGREES
62
root  49.4904 39.2479 1.8933 23.9543 -88.5663 -28.1634
RightUpLeg  7.1554 -10.1155 0.0645814
RightLeg  15.955 -7.01653 3.16456
RightFoot  -17.3941 -0.217624 -1.89655
RightToes  0.00048216 0.542163 -0.142577
Spine  9.94943 0.935647 11.8159
Spine1  11.2854 3.03721 -3.76122
HEad  7.96113 -2.89771 -2.29348
LeftShoulder1  7.59134 -11.8064 -43.1141
LeftArm  -7.82356 20.6559 -31.1708
LeftForeArm  34.2483 -23.0528 -3.23846
LeftHand  -0.25398 0.0180481 5.50724
RightShoulder  4.05384 7.2411 31.7833
RightArm  -2.70591 1.46251 40.7697
RightForeArm  6.75487 35.3844 7.58381
RightHand  -1.12044 2.02905 -17.6465
LeftUpLeg  -23.0211 6.54885 -1.75436
LeftLeg  19.8419 -0.776585 -0.0411439
LeftFoot  1.84747 0.583118 -5.13099
LeftToes  1.06247e-005 4.65855e-005 -8.185e-006
63
root  48.1621 39.0905 1.86723 19.4134 -88.3907 -23.7254
RightUpLeg  10.2283 -9.9993 -0.316167
RightLeg  14.6706 -7.09001 3.39898
RightFoot  -18.8002 -0.209264 -1.26459
RightToes  0.00048216 0.542163 -0.142577
Spine  9.30932 1.07059 11.151
Spine1  12.0304 3.20073 -4.13948
HEad  8.28218 -2.74524 -2.14379
LeftShoulder1  7.5577 -11.7103 -43.1983
LeftArm  -7.69043 21.8104 -30.9843
LeftForeArm  34.4425 -20.6708 -3.2641
LeftHand  -0.25398 0.0180481 5.50724
RightShoulder  4.0905 7.35524 31.7238
RightArm  -1.98869 1.72526 41.1318
RightForeArm  7.11157 34.8361 7.40966
RightHand  -1.12483 2.1357 -17.4749
LeftUpLeg  -21.4326 8.49668 -2.61054
LeftLeg  8.81004 1.3284 -1.69543
LeftFoot  2.71381 0.73186 -6.0772
LeftToes  1.06247e-005 4.65855e-005 -8.185e-006
64
root  46.7536 38.8239 1.8655 19.0874 -88.0148 -23.5253
RightUpLeg  12.8619 -10.9858 -0.853964
RightLeg  14.8068 -6.06512 3.52011
RightFoot  -20.0261 -0.175525 -0.518727
RightToes  0.00048216 0.542163 -0.142577
Spine  8.74373 1.16516 10.626
Spine1  12.4761 3.35475 -4.43591
HEad  8.88593 -2.92915 -1.65829
LeftShoulder1  7.45264 -11.5487 -43.0451
LeftArm  -8.13138 22.9413 -30.821
LeftForeArm  35.4688 -18.2693 -3.5672
LeftHand  -0.25398 0.0180481 5.50724
RightShoulder  4.16692 7.48001 31.9933
RightArm  -1.37606 1.36654 41.2234
RightForeArm  7.04441 33.7517 7.11768
RightHand  -1.17177 2.42893 -17.5343
LeftUpLeg  -19.7786 2.63736 -0.118963
LeftLeg  1.47962 13.2106 -5.00341
LeftFoot  2.22282 0.645724 -5.51751
LeftToes  1.06247e-005 4.65855e-005 -8.185e-006
65
root  45.2449 38.5112 1.88959 20.3798 -87.8051 -24.9325
RightUpLeg  15.0795 -13.3073 -1.93891
RightLeg  16.3082 -3.33692 3.3197
RightFoot  -21.0216 -0.123778 0.211237
RightToes  0.00048216 0.542163 -0.142577
Spine  8.08057 1.32648 10.0911
Spine1  12.9668 3.65384 -4.83651
HEad  9.47567 -3.36748 -0.766962
LeftShoulder1  7.27401 -11.3376 -42.5825
LeftArm  -9.04552 24.0808 -30.6892
LeftForeArm  37.0466 -16.2408 -3.84714
LeftHand  -0.25398 0.0180481 5.50724
RightShoulder  4.26874 7.57773 32.5787
RightArm  -0.862994 0.507775 41.1857
RightForeArm  6.93817 32.1871 6.71065
RightHand  -1.22181 2.71772 -17.6442
LeftUpLeg  -19.5883 2.08436 -0.558327
LeftLeg  0.753352 18.0396 -5.58467
LeftFoot  2.10344 0.351917 -3.12326
LeftToes  1.06247e-005 4.65855e-005 -8.185e-006
66
root  43.6437 38.2043 1.90885 11.2765 -87.9087 -16.1407
RightUpLeg  17.2939 -16.6378 -4.05335
RightLeg  18.8226 0.953328 2.6421
RightFoot  -22.0977 0.0597601 2.14958
RightToes  0.00048216 0.542163 -0.142577
Spine  7.47192 1.65107 8.55697
Spine1  13.7108 3.97144 -4.78297
HEad  9.95539 -3.84097 0.373205
LeftShoulder1  7.09483 -11.0849 -42.23
LeftArm  -10.063 25.0407 -30.2228
LeftForeArm  38.2423 -14.5617 -3.99474
LeftHand  -0.25398 0.0180481 5.50724
RightShoulder  4.40748 7.70879 33.3635
RightArm  -0.532746 -0.861886 41.1132
RightForeArm  6.91707 30.2435 6.22061
RightHand  -1.23828 2.89213 -17.5174
LeftUpLeg  -20.3489 5.36121 -3.08419
LeftLeg  5.61147 15.9689 -3.34751
LeftFoot  4.15755 -0.183116 1.08129
LeftToes  1.06247e-005 4.65855e-005 -8.185e-006
67
root  42.0141 37.945 1.90325 -14.2018 -87.9671 8.69342
RightUpLeg  18.548 -18.5137 -6.43001
RightLeg  23.5394 4.2567 1.78472
RightFoot  -21.612 0.414168 6.38087
RightToes  0.00048216 0.542163 -0.142577
Spine  7.39271 2.12364 5.73417
Spine1  14.1995 4.13501 -4.04252
HEad  10.6021 -4.32477 1.66894
LeftShoulder1  6.97933 -10.8243 -42.301
LeftArm  -10.9045 25.482 -29.2003
LeftForeArm  38.3741 -12.7979 -4.09582
LeftHand  -0.25398 0.0180481 5.50724
RightShoulder  4.55835 7.85161 34.192
RightArm  -0.259245 -2.75598 41.2194
RightForeArm  6.56408 27.7893 5.64843
RightHand  -1.24811 3.04629 -17.346
LeftUpLeg  -21.488 12.161 -7.5188
LeftLeg  12.2817 7.84665 0.0271562
LeftFoot  6.54155 -0.98651 6.04836
LeftToes  1.06247e-005 4.65855e-005 -8.185e-006
68
root  40.4877 37.8621 1.89545 -47.0759 -87.5867 40.893
RightUpLeg  16.1554 -15.0489 -7.07872
RightLeg  32.389 2.07506 1.11561
RightFoot  -15.5666 0.283929 10.993
RightToes  0.00048216 0.542163 -0.142577
Spine  8.12889 2.57542 2.52305
Spine1  14.015 4.25895 -3.37526
HEad  11.4843 -4.736 2.96357
LeftShoulder1  6.93717 -10.6483 -42.5843
LeftArm  -11.5365 25.3151 -28.0104
LeftForeArm  37.5758 -11.0111 -4.11975
LeftHand  -0.25398 0.0180481 5.50724
RightShoulder  4.66494 7.92994 34.8408
RightArm  0.628193 -4.91055 41.7786
RightForeArm  5.37677 24.9112 5.0596
RightHand  -1.23001 2.94818 -17.2996
LeftUpLeg  -21.748 15.3141 -10.1954
LeftLeg  17.4391 3.99069 1.96464
LeftFoot  6.19417 -1.49817 9.47895
LeftToes  1.06247e-005 4.65855e-005 -8.185e-006
69
root  39.1624 37.9591 1.91985 -76.1318 -86.8987 69.4702
RightUpLeg  9.55187 -11.5714 -7.64659
RightLeg  45.3343 0.0138348 -0.326526
RightFoot  -3.32988 -0.880007 12.6014
RightToes  0.00048216 0.542163 -0.142577
Spine  9.4649 2.82257 -0.20957
Spine1  13.5231 4.38999 -3.52003
HEad  12.2094 -4.50687 3.73573
LeftShoulder1  6.95992 -10.6363 -42.7718
LeftArm  -11.9798 24.7746 -27.1856
LeftForeArm  36.4965 -9.89086 -4.02924
LeftHand  -0.25398 0.0180481 5.50724
RightShoulder  4.74116 8.02225 35.1695
RightArm  2.60209 -6.78549 42.6733
RightForeArm  4.30737 22.3502 4.73006
RightHand  -1.05032 1.97427 -16.6597
LeftUpLeg  -20.496 15.2424 -10.5315
LeftLeg  20.5251 5.36589 2.54292
LeftFoot  3.14631 -1.31056 10.0889
LeftToes  1.06247e-005 4.65855e-005 -8.185e-006
